<svg width="86" height="85" viewBox="0 0 86 85" fill="none" xmlns="http://www.w3.org/2000/svg">
<g id="insta_icon">
<g id="Group">
<g id="Group_2">
<path id="Vector" d="M62.249 0H23.0467C10.3388 0 0 10.2109 0 22.7616V61.4791C0 74.0298 10.3388 84.2407 23.0467 84.2407H62.249C74.9569 84.2407 85.2957 74.0298 85.2957 61.4791V22.7616C85.2957 10.2109 74.9569 0 62.249 0ZM78.4047 61.4791C78.4047 70.2772 71.1574 77.435 62.249 77.435H23.0467C14.1384 77.435 6.89096 70.2773 6.89096 61.4791V22.7616C6.89096 13.9636 14.1383 6.80573 23.0467 6.80573H62.249C71.1573 6.80573 78.4047 13.9634 78.4047 22.7616V61.4791Z" fill="white"/>
</g>
</g>
<g id="Group_3">
<g id="Group_4">
<path id="Vector_2" d="M61.739 39.1768C61.1326 35.1381 59.267 31.4775 56.3438 28.5905C53.4206 25.7036 49.7142 23.8608 45.625 23.2621C43.7631 22.9895 41.8755 22.9895 40.0138 23.2621C34.96 24.0023 30.5008 26.6418 27.4573 30.6944C24.4139 34.747 23.1502 39.7277 23.8997 44.7186C24.6493 49.7097 27.3217 54.1138 31.4251 57.1198C34.7563 59.56 38.7062 60.8413 42.7789 60.8413C43.723 60.8413 44.6739 60.7726 45.6248 60.6332C50.6786 59.893 55.1378 57.2535 58.1813 53.2009C61.2249 49.1485 62.4885 44.1679 61.739 39.1768ZM44.6141 53.901C41.3814 54.3752 38.1553 53.5764 35.5303 51.6535C32.9053 49.7306 31.1957 46.9132 30.7164 43.7204C30.237 40.5277 31.0451 37.3415 32.9921 34.7489C34.9392 32.1564 37.7918 30.468 41.0247 29.9944C41.6201 29.9072 42.2197 29.8636 42.8192 29.8636C43.4188 29.8636 44.0185 29.9072 44.6139 29.9946C49.9834 30.7809 54.1261 34.8722 54.9224 40.1754C55.9119 46.7662 51.2878 52.9237 44.6141 53.901Z" fill="white"/>
</g>
</g>
<g id="Group_5">
<g id="Group_6">
<path id="Vector_3" d="M66.6472 18.4215C66.0055 17.7879 65.1174 17.4248 64.2108 17.4248C63.3042 17.4248 62.4161 17.7878 61.7744 18.4215C61.1328 19.0553 60.7652 19.931 60.7652 20.8278C60.7652 21.7247 61.1328 22.6003 61.7744 23.2341C62.4161 23.8677 63.3042 24.2309 64.2108 24.2309C65.1174 24.2309 66.0055 23.8679 66.6472 23.2341C67.2888 22.6003 67.6565 21.7232 67.6565 20.8278C67.6565 19.9323 67.2888 19.0552 66.6472 18.4215Z" fill="white"/>
</g>
</g>
</g>
</svg>
