<svg width="91" height="74" viewBox="0 0 91 74" fill="none" xmlns="http://www.w3.org/2000/svg">
<g id="twitter_icon">
<g id="Group">
<g id="Group_2">
<path id="Vector" d="M90.8234 8.72113C87.4806 10.2011 83.8938 11.2047 80.1252 11.6528C83.9732 9.35056 86.9187 5.69883 88.3148 1.36087C84.7053 3.49293 80.7211 5.04107 76.4758 5.88031C73.0763 2.2569 68.2408 2.80551e-07 62.8775 2.80551e-07C52.588 2.80551e-07 44.2452 8.33561 44.2452 18.6105C44.2452 20.0678 44.4097 21.4911 44.7276 22.8521C29.2452 22.0751 15.5164 14.6639 6.32797 3.40218C4.72179 6.14677 3.80806 9.34477 3.80806 12.7585C3.80806 19.2173 7.09982 24.9161 12.0942 28.2502C9.0408 28.1482 6.16903 27.309 3.65491 25.914V26.1465C3.65491 35.1625 10.0795 42.6872 18.5982 44.3998C17.0374 44.8194 15.3916 45.0519 13.689 45.0519C12.4859 45.0519 11.3224 44.9328 10.1816 44.706C12.5538 52.106 19.4325 57.4872 27.5825 57.6347C21.2089 62.6248 13.1725 65.5905 4.44382 65.5905C2.93989 65.5905 1.45852 65.4997 0 65.3353C8.24639 70.6259 18.0365 73.7106 28.5587 73.7106C62.8324 73.7106 81.567 45.3468 81.567 20.7484L81.5045 18.3384C85.165 15.7298 88.3318 12.4523 90.8234 8.72113Z" fill="white"/>
</g>
</g>
</g>
</svg>
